<?xml version="1.0" encoding="UTF-8" standalone="no"?><svg xmlns="http://www.w3.org/2000/svg" xmlns:xlink="http://www.w3.org/1999/xlink" contentScriptType="application/ecmascript" contentStyleType="text/css" height="237px" preserveAspectRatio="none" style="width:115px;height:237px;" version="1.1" viewBox="0 0 115 237" width="115px" zoomAndPan="magnify"><defs><filter height="300%" id="f17crefzlzmon6" width="300%" x="-1" y="-1"><feGaussianBlur result="blurOut" stdDeviation="2.0"/><feColorMatrix in="blurOut" result="blurOut2" type="matrix" values="0 0 0 0 0 0 0 0 0 0 0 0 0 0 0 0 0 0 .4 0"/><feOffset dx="4.0" dy="4.0" in="blurOut2" result="blurOut3"/><feBlend in="SourceGraphic" in2="blurOut3" mode="normal"/></filter></defs><g><!--MD5=[44201db48fb57df1a9c7f5b6b15426b0]
class Actor--><rect fill="#FEFECE" filter="url(#f17crefzlzmon6)" height="32" id="Actor" style="stroke:#A80036;stroke-width:1.5;" width="65" x="21.5" y="7"/><ellipse cx="36.5" cy="23" fill="#ADD1B2" rx="11" ry="11" style="stroke:#A80036;stroke-width:1.0;"/><path d="M36.7031,29.1719 C37.75,29.1719 38.7656,28.9844 39.75,28.5938 L39.3594,26.5781 C38.5781,26.9063 37.8125,27.0781 36.9844,27.0781 C34.5938,27.0781 33.375,25.7188 33.375,23 C33.375,20.5469 34.625,19.1406 36.5313,19.1406 C37.4219,19.1406 38.2344,19.5 38.7188,20.1094 L39.9531,18.5 C39.3281,17.5625 38.0781,17.0469 36.5156,17.0469 C33.0469,17.0469 31.0781,19.25 31.0781,23.0938 C31.0781,27.1406 32.9688,29.1719 36.7031,29.1719 Z " fill="#000000"/><text fill="#000000" font-family="sans-serif" font-size="12" lengthAdjust="spacing" textLength="33" x="50.5" y="27.1543">Actor</text><!--MD5=[af29ca247b3a3642f0fb478cea99ef78]
class Pawn--><rect fill="#FEFECE" filter="url(#f17crefzlzmon6)" height="32" id="Pawn" style="stroke:#A80036;stroke-width:1.5;" width="65" x="21.5" y="99"/><ellipse cx="36.5" cy="115" fill="#ADD1B2" rx="11" ry="11" style="stroke:#A80036;stroke-width:1.0;"/><path d="M36.7031,121.1719 C37.75,121.1719 38.7656,120.9844 39.75,120.5938 L39.3594,118.5781 C38.5781,118.9063 37.8125,119.0781 36.9844,119.0781 C34.5938,119.0781 33.375,117.7188 33.375,115 C33.375,112.5469 34.625,111.1406 36.5313,111.1406 C37.4219,111.1406 38.2344,111.5 38.7188,112.1094 L39.9531,110.5 C39.3281,109.5625 38.0781,109.0469 36.5156,109.0469 C33.0469,109.0469 31.0781,111.25 31.0781,115.0938 C31.0781,119.1406 32.9688,121.1719 36.7031,121.1719 Z " fill="#000000"/><text fill="#000000" font-family="sans-serif" font-size="12" lengthAdjust="spacing" textLength="33" x="50.5" y="119.1543">Pawn</text><!--MD5=[3eff9d4279c887ef9286477750bdaaff]
class Character--><rect fill="#FEFECE" filter="url(#f17crefzlzmon6)" height="32" id="Character" style="stroke:#A80036;stroke-width:1.5;" width="94" x="7" y="191"/><ellipse cx="22" cy="207" fill="#ADD1B2" rx="11" ry="11" style="stroke:#A80036;stroke-width:1.0;"/><path d="M22.2031,213.1719 C23.25,213.1719 24.2656,212.9844 25.25,212.5938 L24.8594,210.5781 C24.0781,210.9063 23.3125,211.0781 22.4844,211.0781 C20.0938,211.0781 18.875,209.7188 18.875,207 C18.875,204.5469 20.125,203.1406 22.0313,203.1406 C22.9219,203.1406 23.7344,203.5 24.2188,204.1094 L25.4531,202.5 C24.8281,201.5625 23.5781,201.0469 22.0156,201.0469 C18.5469,201.0469 16.5781,203.25 16.5781,207.0938 C16.5781,211.1406 18.4688,213.1719 22.2031,213.1719 Z " fill="#000000"/><text fill="#000000" font-family="sans-serif" font-size="12" lengthAdjust="spacing" textLength="62" x="36" y="211.1543">Character</text><!--MD5=[c6dc7866899dcf1c7e4b0faeae82b400]
reverse link Actor to Pawn--><path codeLine="1" d="M54,59.61 C54,73.31 54,88.22 54,98.96 " fill="none" id="Actor-backto-Pawn" style="stroke:#A80036;stroke-width:1.0;"/><polygon fill="none" points="47,59.27,54,39.27,61,59.27,47,59.27" style="stroke:#A80036;stroke-width:1.0;"/><!--MD5=[0f399de4a10f48f26ac649ecb10e5ecb]
reverse link Pawn to Character--><path codeLine="2" d="M54,151.61 C54,165.31 54,180.22 54,190.96 " fill="none" id="Pawn-backto-Character" style="stroke:#A80036;stroke-width:1.0;"/><polygon fill="none" points="47,151.27,54,131.27,61,151.27,47,151.27" style="stroke:#A80036;stroke-width:1.0;"/><!--MD5=[e156794a59940a8dabb72f24d0f8a315]
@startuml
Actor <|- - Pawn
Pawn <|- - Character
hide members
@end

PlantUML version 1.2021.00(Sun Jan 10 11:25:05 CET 2021)
(LGPL source distribution)
Java Runtime: OpenJDK Runtime Environment
JVM: OpenJDK 64-Bit Server VM
Default Encoding: UTF-8
Language: es
Country: ES
--></g></svg>