<svg xmlns="http://www.w3.org/2000/svg" height="237" preserveAspectRatio="none" style="width:115px;height:237px" width="115"><defs><filter height="300%" id="f17crefzlzmon6" width="300%" x="-1" y="-1"><feGaussianBlur result="blurOut" stdDeviation="2"/><feColorMatrix in="blurOut" result="blurOut2" values="0 0 0 0 0 0 0 0 0 0 0 0 0 0 0 0 0 0 .4 0"/><feOffset dx="4" dy="4" in="blurOut2" result="blurOut3"/><feBlend in="SourceGraphic" in2="blurOut3"/></filter></defs><path fill="#FEFECE" filter="url('#f17crefzlzmon6')" id="Actor" style="stroke:#a80036;stroke-width:1.5px" d="M21.5 7h65v32h-65z"/><circle cx="36.5" cy="23" fill="#ADD1B2" style="stroke:#a80036;stroke-width:1px" r="11"/><path d="M36.703 29.172a8.182 8.182 0 0 0 3.047-.578l-.39-2.016c-.782.328-1.547.5-2.376.5-2.39 0-3.609-1.36-3.609-4.078 0-2.453 1.25-3.86 3.156-3.86.89 0 1.703.36 2.188.97l1.234-1.61c-.625-.938-1.875-1.453-3.437-1.453-3.47 0-5.438 2.203-5.438 6.047 0 4.047 1.89 6.078 5.625 6.078Z"/><text font-family="sans-serif" font-size="12" textLength="33" x="50.5" y="27.154">Actor</text><path fill="#FEFECE" filter="url('#f17crefzlzmon6')" id="Pawn" style="stroke:#a80036;stroke-width:1.5px" d="M21.5 99h65v32h-65z"/><circle cx="36.5" cy="115" fill="#ADD1B2" style="stroke:#a80036;stroke-width:1px" r="11"/><path d="M36.703 121.172a8.182 8.182 0 0 0 3.047-.578l-.39-2.016c-.782.328-1.547.5-2.376.5-2.39 0-3.609-1.36-3.609-4.078 0-2.453 1.25-3.86 3.156-3.86.89 0 1.703.36 2.188.97l1.234-1.61c-.625-.938-1.875-1.453-3.437-1.453-3.47 0-5.438 2.203-5.438 6.047 0 4.047 1.89 6.078 5.625 6.078Z"/><text font-family="sans-serif" font-size="12" textLength="33" x="50.5" y="119.154">Pawn</text><path fill="#FEFECE" filter="url('#f17crefzlzmon6')" id="Character" style="stroke:#a80036;stroke-width:1.5px" d="M7 191h94v32H7z"/><circle cx="22" cy="207" fill="#ADD1B2" style="stroke:#a80036;stroke-width:1px" r="11"/><path d="M22.203 213.172a8.182 8.182 0 0 0 3.047-.578l-.39-2.016c-.782.328-1.547.5-2.376.5-2.39 0-3.609-1.36-3.609-4.078 0-2.453 1.25-3.86 3.156-3.86.89 0 1.703.36 2.188.97l1.234-1.61c-.625-.938-1.875-1.453-3.437-1.453-3.47 0-5.438 2.203-5.438 6.047 0 4.047 1.89 6.078 5.625 6.078Z"/><text font-family="sans-serif" font-size="12" textLength="62" x="36" y="211.154">Character</text><path d="M54 59.61v39.35" fill="none" id="Actor-backto-Pawn" style="stroke:#a80036;stroke-width:1px"/><path fill="none" style="stroke:#a80036;stroke-width:1px" d="m47 59.27 7-20 7 20H47z"/><path d="M54 151.61v39.35" fill="none" id="Pawn-backto-Character" style="stroke:#a80036;stroke-width:1px"/><path fill="none" style="stroke:#a80036;stroke-width:1px" d="m47 151.27 7-20 7 20H47z"/></svg>